<?xml version="1.0" ?><svg xmlns="http://www.w3.org/2000/svg" viewBox="0 0 24 24"><defs><style>.a{stroke-width:1.2;stroke:#E54C51;;fill:none;;stroke-linecap:round;stroke-linejoin:round;;}</style></defs><path class="a" d="M17.25,23.25a1.5,1.5,0,0,0,1.5-1.5v-6a1.5,1.5,0,0,0-1.5-1.5h-9v-1.5a1.5,1.5,0,0,0-1.5-1.5H2.25a1.5,1.5,0,0,0-1.5,1.5v9a1.5,1.5,0,0,0,1.5,1.5Z"/><path class="a" d="M6.75,11.25v-9A1.5,1.5,0,0,1,8.25.75H18.879a1.5,1.5,0,0,1,1.06.439l2.872,2.872a1.5,1.5,0,0,1,.439,1.06V18.75a1.5,1.5,0,0,1-1.5,1.5h-3"/><line class="a" x1="11.25" y1="5.25" x2="18.75" y2="5.25"/><line class="a" x1="11.25" y1="9.75" x2="18.75" y2="9.75"/></svg>