<?xml version="1.0" ?><svg xmlns="http://www.w3.org/2000/svg" viewBox="0 0 24 24"><defs><style>.a{stroke-width:1.2;stroke:#E54C51;;fill:none;;stroke-linecap:round;stroke-linejoin:round;;}</style></defs><rect class="a" x="12.751" y="0.75" width="10.5" height="12" rx="1.5" ry="1.5"/><line class="a" x1="12.751" y1="6.75" x2="23.251" y2="6.75"/><path class="a" d="M15.751,3.375a.375.375,0,1,0,.375.375.375.375,0,0,0-.375-.375h0"/><path class="a" d="M15.751,9.375a.375.375,0,1,0,.375.375.375.375,0,0,0-.375-.375h0"/><line class="a" x1="20.251" y1="3.75" x2="18.751" y2="3.75"/><line class="a" x1="20.251" y1="9.75" x2="18.751" y2="9.75"/><path class="a" d="M5.251,6.75,3,9V6.75a3,3,0,0,1,3-3h4.5"/><line class="a" x1="0.751" y1="6.75" x2="3.001" y2="9"/><polyline class="a" points="8.251 1.5 10.501 3.75 8.251 6"/><path class="a" d="M4.5,19.875a.375.375,0,1,0,.375.375.375.375,0,0,0-.375-.375h0"/><rect class="a" x="0.751" y="11.25" width="7.5" height="12" rx="1.5" ry="1.5"/></svg>